<svg viewBox="0 0 172 256" role="img" xmlns="http://www.w3.org/2000/svg" fill="currentColor">
    <path d="M0.880005 256V58.3957H35.142V68.7741C42.8167 59.6411 53.0953 55.0746 65.9778 55.0746C77.9466 55.0746 88.2709 58.0728 96.9506 64.0692C105.63 69.9733 112.3 78.4605 116.96 89.5308C121.619 100.601 123.949 113.793 123.949 129.107C123.949 143.96 121.528 156.967 116.686 168.13C111.843 179.2 105.036 187.826 96.2654 194.007C87.4943 200.095 77.2614 203.139 65.5666 203.139C59.1711 203.139 53.4151 201.986 48.2986 199.68C43.1821 197.281 38.7966 193.776 35.142 189.163V240.363L0.880005 256ZM60.4959 170.067C69.8151 170.067 76.9873 166.515 82.0124 159.412C87.0375 152.216 89.55 142.115 89.55 129.107C89.55 116.099 86.9918 105.998 81.8753 98.8022C76.7589 91.6065 69.6324 88.0087 60.4959 88.0087C54.9226 88.0087 50.0345 89.0234 45.8317 91.053C41.7203 93.0825 38.157 96.173 35.142 100.324V157.475C37.6089 161.441 41.0807 164.532 45.5576 166.746C50.1259 168.96 55.1053 170.067 60.4959 170.067Z" />
    <path d="M136.858 199.818V15.6368L171.12 0V199.818H136.858Z" />
</svg>