<svg width="512" height="512" viewBox="0 0 512 512" fill="none" xmlns="http://www.w3.org/2000/svg">
<style>
#gradient stop:nth-child(1) {
    stop-color: #18aa99;
}
#gradient stop:nth-child(2) {
    stop-color: #fcba03;
}

@media (prefers-color-scheme: dark) {
    #gradient stop:nth-child(1) {
        stop-color: #55e7d6;
    }
}
</style>
<path d="M96.4 496V125.492H160.641V144.951C175.031 127.827 194.304 119.265 218.458 119.265C240.9 119.265 260.258 124.887 276.532 136.13C292.807 147.2 305.312 163.114 314.049 183.87C322.786 204.627 327.154 229.362 327.154 258.076C327.154 285.924 322.615 310.314 313.535 331.243C304.456 352 291.693 368.173 275.248 379.762C258.802 391.178 239.615 396.887 217.687 396.887C205.696 396.887 194.903 394.724 185.31 390.4C175.717 385.903 167.494 379.33 160.641 370.681V466.681L96.4 496ZM208.18 334.876C225.653 334.876 239.101 328.216 248.523 314.897C257.945 301.405 262.656 282.465 262.656 258.076C262.656 233.686 257.86 214.746 248.266 201.254C238.673 187.762 225.311 181.016 208.18 181.016C197.73 181.016 188.565 182.919 180.685 186.724C172.976 190.53 166.294 196.324 160.641 204.108V311.265C165.267 318.703 171.776 324.497 180.171 328.649C188.736 332.8 198.072 334.876 208.18 334.876Z" fill="url(#gradient)"/>
<path d="M351.359 390.659V45.3189L415.6 16V390.659H351.359Z" fill="url(#gradient)"/>
<defs>
<radialGradient id="gradient" cx="0" cy="0" r="1" gradientUnits="userSpaceOnUse" gradientTransform="translate(-27.7333 -18.2857) rotate(44.03) scale(789.271 507.098)">
<stop />
<stop offset="1"/>
</radialGradient>
</defs>
</svg>
